HIERARCHY
ROOT Hips
{
	OFFSET 0.000000 103.266502 0.000000
	CHANNELS 6 Xposition Yposition Zposition Xrotation Yrotation Zrotation 
	JOINT Spine
	{
		OFFSET -0.002400 12.777504 0.315300
		CHANNELS 3 Xrotation Yrotation Zrotation
		JOINT Spine1
		{
			OFFSET -0.002067 5.816869 0.032633
			CHANNELS 3 Xrotation Yrotation Zrotation
			JOINT Spine1_split
			{
				OFFSET -0.002067 5.816869 0.032633
				CHANNELS 3 Xrotation Yrotation Zrotation
				JOINT Spine2
				{
					OFFSET -0.002067 5.816869 0.032633
					CHANNELS 3 Xrotation Yrotation Zrotation
					JOINT Neck
					{
						OFFSET -0.003700 21.199493 -0.826900
						CHANNELS 3 Xrotation Yrotation Zrotation
						JOINT Head
						{
							OFFSET 0.000000 20.442200 4.834800
							CHANNELS 3 Xrotation Yrotation Zrotation
							JOINT HeadTop_End
							{
								OFFSET 0.000000 34.668396 4.968400
								CHANNELS 3 Xrotation Yrotation Zrotation
								End Site
								{
									OFFSET 0.000000 0.000000 0.000000
								}
							}
						}
					}
					JOINT LeftShoulder
					{
						OFFSET 3.288150 8.794197 -1.372250
						CHANNELS 3 Xrotation Yrotation Zrotation
						JOINT LeftShoulder_split
						{
							OFFSET 3.288150 8.794197 -1.372250
							CHANNELS 3 Xrotation Yrotation Zrotation
							JOINT LeftArm
							{
								OFFSET 11.953299 -2.279007 -0.146200
								CHANNELS 3 Xrotation Yrotation Zrotation
								JOINT LeftForeArm
								{
									OFFSET 18.448900 0.000000 0.000000
									CHANNELS 3 Xrotation Yrotation Zrotation
									JOINT LeftHand
									{
										OFFSET 29.527798 0.000000 0.000000
										CHANNELS 3 Xrotation Yrotation Zrotation
										JOINT LeftHandThumb1
										{
											OFFSET 10.739754 -2.369614 9.225399
											CHANNELS 3 Xrotation Yrotation Zrotation
											JOINT LeftHandThumb2
											{
												OFFSET 4.926170 -2.844131 2.844125
												CHANNELS 3 Xrotation Yrotation Zrotation
												JOINT LeftHandThumb3
												{
													OFFSET 4.614891 -2.664413 2.664409
													CHANNELS 3 Xrotation Yrotation Zrotation
													JOINT LeftHandThumb4
													{
														OFFSET 4.432465 -2.559082 2.559083
														CHANNELS 3 Xrotation Yrotation Zrotation
														End Site
														{
															OFFSET 0.000000 0.000000 0.000000
														}
													}
												}
											}
										}
										JOINT LeftHandIndex1
										{
											OFFSET 26.467674 0.187653 6.405298
											CHANNELS 3 Xrotation Yrotation Zrotation
											JOINT LeftHandIndex2
											{
												OFFSET 8.792900 0.000000 0.000000
												CHANNELS 3 Xrotation Yrotation Zrotation
												JOINT LeftHandIndex3
												{
													OFFSET 10.075203 0.000000 0.000000
													CHANNELS 3 Xrotation Yrotation Zrotation
													End Site
													{
														OFFSET 0.000000 0.000000 0.000000
													}
												}
											}
										}
										JOINT LeftHandMiddle1
										{
											OFFSET 25.764404 0.000000 0.000000
											CHANNELS 3 Xrotation Yrotation Zrotation
											JOINT LeftHandMiddle2
											{
												OFFSET 9.393974 0.000000 0.000000
												CHANNELS 3 Xrotation Yrotation Zrotation
												JOINT LeftHandMiddle3
												{
													OFFSET 10.771950 0.000000 0.000000
													CHANNELS 3 Xrotation Yrotation Zrotation
													End Site
													{
														OFFSET 0.000000 0.000000 0.000000
													}
												}
											}
										}
										JOINT LeftHandRing1
										{
											OFFSET 24.660927 0.144547 -6.225808
											CHANNELS 3 Xrotation Yrotation Zrotation
											JOINT LeftHandRing2
											{
												OFFSET 9.393799 0.000000 0.000000
												CHANNELS 3 Xrotation Yrotation Zrotation
												JOINT LeftHandRing3
												{
													OFFSET 9.928497 0.000000 0.000000
													CHANNELS 3 Xrotation Yrotation Zrotation
													End Site
													{
														OFFSET 0.000000 0.000000 0.000000
													}
												}
											}
										}
										JOINT LeftHandPinky1
										{
											OFFSET 23.655350 0.125290 -12.815412
											CHANNELS 3 Xrotation Yrotation Zrotation
											JOINT LeftHandPinky2
											{
												OFFSET 8.425102 0.000000 0.000000
												CHANNELS 3 Xrotation Yrotation Zrotation
												JOINT LeftHandPinky3
												{
													OFFSET 8.147003 0.000000 0.000000
													CHANNELS 3 Xrotation Yrotation Zrotation
													End Site
													{
														OFFSET 0.000000 0.000000 0.000000
													}
												}
											}
										}
									}
								}
							}
						}
					}
					JOINT RightShoulder
					{
						OFFSET -3.249400 8.794197 -1.372250
						CHANNELS 3 Xrotation Yrotation Zrotation
						JOINT RightShoulder_split
						{
							OFFSET -3.249400 8.794197 -1.372250
							CHANNELS 3 Xrotation Yrotation Zrotation
							JOINT RightArm
							{
								OFFSET -11.953299 -2.279007 -0.146200
								CHANNELS 3 Xrotation Yrotation Zrotation
								JOINT RightForeArm
								{
									OFFSET -18.448900 0.000000 0.000000
									CHANNELS 3 Xrotation Yrotation Zrotation
									JOINT RightHand
									{
										OFFSET -29.527802 0.000000 0.000000
										CHANNELS 3 Xrotation Yrotation Zrotation
										JOINT RightHandThumb1
										{
											OFFSET -10.739754 -2.369614 9.225399
											CHANNELS 3 Xrotation Yrotation Zrotation
											JOINT RightHandThumb2
											{
												OFFSET -4.926170 -2.844131 2.844125
												CHANNELS 3 Xrotation Yrotation Zrotation
												JOINT RightHandThumb3
												{
													OFFSET -4.614891 -2.664413 2.664409
													CHANNELS 3 Xrotation Yrotation Zrotation
													JOINT RightHandThumb4
													{
														OFFSET -4.432465 -2.559082 2.559083
														CHANNELS 3 Xrotation Yrotation Zrotation
														End Site
														{
															OFFSET 0.000000 0.000000 0.000000
														}
													}
												}
											}
										}
										JOINT RightHandIndex1
										{
											OFFSET -26.467674 0.187653 6.405298
											CHANNELS 3 Xrotation Yrotation Zrotation
											JOINT RightHandIndex2
											{
												OFFSET -8.792900 0.000000 0.000000
												CHANNELS 3 Xrotation Yrotation Zrotation
												JOINT RightHandIndex3
												{
													OFFSET -10.075203 0.000000 0.000000
													CHANNELS 3 Xrotation Yrotation Zrotation
													End Site
													{
														OFFSET 0.000000 0.000000 0.000000
													}
												}
											}
										}
										JOINT RightHandMiddle1
										{
											OFFSET -25.764404 0.000000 0.000000
											CHANNELS 3 Xrotation Yrotation Zrotation
											JOINT RightHandMiddle2
											{
												OFFSET -9.393974 0.000000 0.000000
												CHANNELS 3 Xrotation Yrotation Zrotation
												JOINT RightHandMiddle3
												{
													OFFSET -10.771950 0.000000 0.000000
													CHANNELS 3 Xrotation Yrotation Zrotation
													End Site
													{
														OFFSET 0.000000 0.000000 0.000000
													}
												}
											}
										}
										JOINT RightHandRing1
										{
											OFFSET -24.660927 0.144547 -6.225808
											CHANNELS 3 Xrotation Yrotation Zrotation
											JOINT RightHandRing2
											{
												OFFSET -9.393799 0.000000 0.000000
												CHANNELS 3 Xrotation Yrotation Zrotation
												JOINT RightHandRing3
												{
													OFFSET -9.928497 0.000000 0.000000
													CHANNELS 3 Xrotation Yrotation Zrotation
													End Site
													{
														OFFSET 0.000000 0.000000 0.000000
													}
												}
											}
										}
										JOINT RightHandPinky1
										{
											OFFSET -23.655350 0.125290 -12.815412
											CHANNELS 3 Xrotation Yrotation Zrotation
											JOINT RightHandPinky2
											{
												OFFSET -8.425102 0.000000 0.000000
												CHANNELS 3 Xrotation Yrotation Zrotation
												JOINT RightHandPinky3
												{
													OFFSET -8.147003 0.000000 0.000000
													CHANNELS 3 Xrotation Yrotation Zrotation
													End Site
													{
														OFFSET 0.000000 0.000000 0.000000
													}
												}
											}
										}
									}
								}
							}
						}
					}
				}
			}
		}
	}
	JOINT LeftUpLeg
	{
		OFFSET 11.394100 -6.187798 -0.413800
		CHANNELS 3 Xrotation Yrotation Zrotation
		JOINT LeftLeg
		{
			OFFSET 0.430247 -32.302673 3.732800
			CHANNELS 3 Xrotation Yrotation Zrotation
			JOINT LeftFoot
			{
				OFFSET -0.430247 -48.264931 -6.423300
				CHANNELS 3 Xrotation Yrotation Zrotation
				JOINT LeftToeBase
				{
					OFFSET 4.230900 -16.068199 23.438400
					CHANNELS 3 Xrotation Yrotation Zrotation
					JOINT LeftToe_End
					{
						OFFSET 4.510700 0.695400 19.974600
						CHANNELS 3 Xrotation Yrotation Zrotation
						End Site
						{
							OFFSET 0.000000 0.000000 0.000000
						}
					}
				}
			}
		}
	}
	JOINT RightUpLeg
	{
		OFFSET -11.333700 -6.187798 -0.413800
		CHANNELS 3 Xrotation Yrotation Zrotation
		JOINT RightLeg
		{
			OFFSET -0.430392 -32.302628 3.733000
			CHANNELS 3 Xrotation Yrotation Zrotation
			JOINT RightFoot
			{
				OFFSET 0.430392 -48.264973 -6.423500
				CHANNELS 3 Xrotation Yrotation Zrotation
				JOINT RightToeBase
				{
					OFFSET -4.230900 -16.068199 23.438400
					CHANNELS 3 Xrotation Yrotation Zrotation
					JOINT RightToe_End
					{
						OFFSET -4.510700 0.695400 19.974600
						CHANNELS 3 Xrotation Yrotation Zrotation
						End Site
						{
							OFFSET 0.000000 0.000000 0.000000
						}
					}
				}
			}
		}
	}
}
MOTION
Frames: 6
Frame Time: 0.016667
3.427573 42.500572 -16.931343 35.523431 3.189879 2.150544 20.870621 4.843446 -5.613786 16.625270 2.079676 -1.485668 0.000000 0.000000 0.000000 17.328745 1.234477 -2.301337 5.476094 -1.525563 3.253844 0.036667 -8.619861 6.396880 0.000000 0.000000 0.000000 1.353982 -36.456654 -6.881254 0.000000 0.000000 0.000000 -62.004498 -39.879893 -54.567727 -0.000026 -60.951850 -0.000047 -18.879876 -14.506200 -10.306277 46.706862 -54.290892 -12.631210 3.448295 53.010854 10.294983 55.540991 55.566632 -29.377876 0.000001 0.000001 -0.000004 6.697756 5.391171 -58.720434 3.793616 5.478563 -69.379880 0.000001 -0.000000 -0.000002 -2.544092 3.154081 -51.895210 5.923326 5.850619 -90.709113 -0.000000 0.000001 0.000000 0.963616 5.963287 -53.197885 4.594735 5.715047 -77.580191 0.000000 -0.000001 0.000001 -0.907374 26.005018 -39.715491 3.064055 5.146688 -61.512602 -0.000001 -0.000001 -0.000002 0.501210 13.720772 0.229929 0.000000 0.000000 0.000000 -44.186871 22.328126 43.767910 0.000015 66.681996 -0.000020 -26.725431 16.671151 -4.017989 69.260263 51.829866 -9.321595 -17.238330 -69.068335 -27.413547 100.202010 -53.850574 76.704705 -0.000000 0.000000 -0.000001 4.914262 -3.615825 60.176501 3.071660 -4.379535 70.075924 0.000000 -0.000003 0.000000 0.967456 -5.391919 56.500394 4.691400 -4.657040 90.421582 0.000001 0.000001 0.000001 3.739681 -7.060328 61.039283 4.198911 -4.634610 84.346928 0.000000 -0.000002 -0.000001 1.020319 -22.211471 53.091873 2.717057 -4.234626 65.356755 0.000000 -0.000003 0.000001 -105.666619 -8.937636 1.642610 134.211168 20.114502 1.284668 62.175711 6.374702 -4.915840 13.492729 11.184303 42.734636 0.000002 -0.000003 -0.000001 -99.685525 23.873637 -11.421348 134.104945 -5.137071 0.875531 55.131474 8.594313 3.288634 1.360558 -34.615925 -52.016095 -0.000001 0.000001 0.000000 
3.126540 42.431213 -17.548283 33.209879 2.320568 2.141906 21.196695 4.573165 -6.318413 17.022950 1.980982 -1.805812 0.000000 0.000000 0.000000 18.108133 1.141503 -2.575392 5.617644 -1.520869 3.438335 1.609239 -7.888319 6.936111 0.000000 -0.000000 -0.000000 0.477523 -34.381799 -9.362764 0.000000 0.000000 0.000000 -61.426166 -41.959396 -53.402220 -0.000035 -61.272896 -0.000038 -22.963472 -13.256072 -12.254853 46.706428 -54.290418 -12.630043 3.450920 53.011277 10.293369 55.540107 55.566212 -29.375653 -0.000001 -0.000000 -0.000001 6.698413 5.389818 -58.719949 3.793569 5.478566 -69.379375 -0.000000 -0.000002 -0.000001 -2.545105 3.153132 -51.894196 5.923222 5.850608 -90.707876 0.000000 0.000002 0.000000 0.964055 5.963673 -53.199281 4.594576 5.715026 -77.578586 0.000001 -0.000000 0.000001 -0.905727 26.004146 -39.717229 3.064172 5.146748 -61.513865 0.000001 -0.000003 -0.000002 0.583488 12.269620 0.145177 0.000000 0.000000 0.000000 -46.315226 24.522715 46.813454 0.000020 65.396063 -0.000042 -21.012613 17.831694 -3.834776 69.234137 51.862087 -9.337175 -17.171500 -69.029129 -27.340716 99.875957 -53.626137 76.456420 -0.000001 0.000001 -0.000001 4.909839 -3.611818 60.155033 3.069805 -4.378850 70.051404 0.000003 -0.000002 -0.000002 0.966390 -5.390597 56.478916 4.689398 -4.657066 90.397000 -0.000002 0.000000 0.000000 3.737756 -7.059893 61.017700 4.196929 -4.634426 84.322319 -0.000001 -0.000001 -0.000001 1.013299 -22.210937 53.073319 2.715638 -4.233976 65.337617 -0.000002 -0.000001 0.000001 -104.487455 -9.720078 2.205631 134.885526 19.542718 1.425913 62.890012 6.298040 -5.247016 13.484166 11.190417 42.748668 -0.000000 -0.000001 -0.000000 -100.039192 22.461958 -9.650959 134.951970 -6.071652 0.172746 56.121069 8.116001 3.169322 1.372505 -34.620958 -52.007673 0.000001 0.000000 -0.000001 
2.914143 42.407173 -17.954388 31.500184 1.707222 2.110411 21.403859 4.227580 -6.697526 17.202538 1.870332 -1.986119 0.000000 0.000000 0.000000 18.500472 1.040076 -2.690536 5.684550 -1.489048 3.465682 2.673371 -7.397685 7.196645 0.000000 -0.000000 -0.000000 -0.501351 -31.291071 -12.871378 0.000000 0.000000 0.000000 -60.476715 -44.977366 -51.911726 -0.000043 -61.886520 -0.000053 -28.497591 -11.740406 -12.578091 46.706097 -54.289878 -12.628689 3.453632 53.011741 10.291759 55.538109 55.565112 -29.372457 -0.000001 0.000001 0.000002 6.699130 5.388246 -58.718747 3.793477 5.478512 -69.378241 -0.000001 0.000001 -0.000002 -2.546226 3.152097 -51.892974 5.923085 5.850634 -90.706586 0.000001 0.000004 -0.000000 0.964522 5.964086 -53.200712 4.594415 5.714983 -77.576906 -0.000002 -0.000001 0.000000 -0.903883 26.003157 -39.719179 3.064302 5.146826 -61.515368 0.000001 -0.000002 -0.000004 0.552201 11.477475 0.087598 0.000000 0.000000 0.000000 -48.643193 26.757877 49.917153 -0.000013 63.773579 0.000011 -14.598401 19.870916 -3.658895 69.205628 51.896382 -9.358301 -17.081325 -68.975977 -27.242167 99.509060 -53.376866 76.180030 0.000002 0.000001 0.000000 4.904437 -3.606880 60.131080 3.067706 -4.378091 70.024015 0.000000 -0.000001 -0.000000 0.965184 -5.389104 56.454956 4.687172 -4.657086 90.369570 -0.000002 -0.000000 0.000001 3.735626 -7.059430 60.993589 4.194723 -4.634195 84.294930 0.000001 -0.000001 0.000000 1.005554 -22.210325 53.052624 2.714074 -4.233252 65.316266 -0.000001 0.000000 0.000001 -103.420641 -10.235348 2.622791 135.274820 19.239880 1.551110 63.319200 6.186532 -5.428014 13.479886 11.195095 42.755345 0.000000 0.000000 0.000001 -100.016448 21.471567 -8.448892 135.467691 -6.389182 -0.222547 56.737637 7.604727 3.386260 1.393987 -34.630084 -51.992226 -0.000000 0.000000 0.000001 
2.756053 42.404053 -18.250809 30.136909 1.224404 2.075342 21.522151 3.884933 -6.938349 17.308521 1.764368 -2.107500 0.000000 0.000000 0.000000 18.739560 0.943237 -2.743023 5.724971 -1.448771 3.430576 3.539760 -7.023166 7.344354 -0.000000 0.000000 -0.000000 -1.190619 -27.773400 -16.681118 0.000000 0.000000 0.000000 -58.867454 -47.971612 -49.903322 0.000018 -63.757617 0.000013 -34.031260 -10.583154 -11.107792 46.705749 -54.289267 -12.627145 3.456495 53.012302 10.290151 55.535308 55.563589 -29.368727 0.000001 0.000003 -0.000001 6.699899 5.386520 -58.717408 3.793354 5.478470 -69.376977 -0.000000 0.000002 -0.000002 -2.547350 3.151020 -51.891792 5.922935 5.850613 -90.705042 0.000001 -0.000001 -0.000001 0.965024 5.964511 -53.202208 4.594241 5.714942 -77.575158 0.000001 -0.000001 -0.000001 -0.902015 26.002093 -39.721153 3.064449 5.146906 -61.517041 0.000000 0.000000 -0.000003 0.425787 11.211947 0.063300 0.000000 0.000000 0.000000 -50.733593 28.440168 52.955590 -0.000037 62.997567 0.000028 -8.850941 21.981453 -3.713538 69.176012 51.931206 -9.384719 -16.971973 -68.909328 -27.122568 99.116024 -53.111711 75.887192 -0.000002 0.000001 0.000000 4.898563 -3.601247 60.105487 3.065476 -4.377286 69.994809 0.000002 -0.000000 0.000000 0.963897 -5.387471 56.429360 4.684791 -4.657089 90.340330 -0.000002 0.000001 0.000000 3.733387 -7.058930 60.967908 4.192341 -4.633956 84.265663 0.000000 -0.000001 -0.000002 0.997338 -22.209624 53.030572 2.712380 -4.232483 65.293467 0.000000 -0.000001 0.000003 -102.437695 -10.748906 2.980620 135.549393 19.085917 1.574888 63.584663 6.001330 -5.416812 13.477082 11.196808 42.754952 0.000000 0.000001 0.000001 -99.838753 20.774212 -7.578089 135.821098 -6.261790 -0.427557 57.163369 7.028480 3.798313 1.416241 -34.639557 -51.975701 -0.000000 0.000002 -0.000001 
2.638006 42.416679 -18.464474 29.033577 0.839332 2.043062 21.575087 3.544365 -7.076930 17.359182 1.662022 -2.184655 0.000000 0.000000 0.000000 18.863258 0.849935 -2.748507 5.745518 -1.402226 3.348721 4.259351 -6.738454 7.407412 0.000000 -0.000000 0.000000 -1.471510 -24.595007 -20.001017 0.000000 0.000000 0.000000 -56.443707 -50.000516 -47.503464 0.000013 -67.329403 0.000008 -38.156609 -10.095689 -8.717053 46.705711 -54.288557 -12.625278 3.459574 53.012879 10.288463 55.531969 55.561769 -29.364670 -0.000002 0.000001 -0.000000 6.700695 5.384701 -58.716131 3.793228 5.478423 -69.375748 -0.000001 -0.000000 -0.000003 -2.548515 3.149939 -51.890675 5.922753 5.850627 -90.703451 0.000001 0.000000 0.000001 0.965563 5.964955 -53.203755 4.594039 5.714886 -77.573225 0.000001 0.000002 -0.000000 -0.900098 26.000990 -39.723175 3.064609 5.146994 -61.518810 -0.000002 -0.000000 0.000001 0.263111 11.153649 0.069186 0.000000 0.000000 0.000000 -51.972064 29.135681 55.668268 0.000012 63.901501 -0.000009 -4.906411 23.250244 -3.864151 69.146342 51.965155 -9.416106 -16.845092 -68.830910 -26.983644 98.710433 -52.839146 75.588372 -0.000001 0.000001 -0.000000 4.892889 -3.595125 60.079088 3.063171 -4.376443 69.964592 0.000001 -0.000000 -0.000000 0.962494 -5.385808 56.402934 4.682361 -4.657105 90.310100 -0.000002 -0.000002 -0.000002 3.731063 -7.058439 60.941338 4.189899 -4.633711 84.235425 -0.000001 -0.000001 -0.000001 0.988901 -22.208872 53.007797 2.710631 -4.231689 65.269889 0.000001 -0.000000 -0.000001 -101.526240 -11.151816 3.290464 135.717293 19.113128 1.592162 63.719566 5.784051 -5.256000 13.482583 11.193401 42.738048 -0.000003 0.000000 -0.000000 -99.489280 20.745204 -6.975641 136.079034 -5.487862 -0.214880 57.446105 6.430853 4.357803 1.434654 -34.647542 -51.961672 -0.000001 0.000001 0.000002 
2.546360 42.440575 -18.622353 28.103915 0.519413 2.013552 21.585361 3.205751 -7.147079 17.372595 1.562213 -2.232261 0.000000 0.000000 0.000000 18.909457 0.759111 -2.722669 5.752881 -1.351584 3.235787 4.881397 -6.515895 7.413874 0.000000 -0.000001 -0.000000 -1.509605 -22.291135 -22.321492 0.000000 0.000000 0.000000 -53.750812 -50.637513 -45.214203 0.000059 -71.519157 0.000050 -40.465705 -10.123927 -6.357173 46.706845 -54.287317 -12.622199 3.462836 53.013569 10.286818 55.528485 55.559778 -29.360487 -0.000001 0.000002 -0.000001 6.701497 5.382812 -58.714792 3.793107 5.478379 -69.374443 -0.000001 0.000001 -0.000001 -2.549683 3.148854 -51.889579 5.922604 5.850626 -90.701996 0.000002 0.000002 -0.000002 0.966122 5.965446 -53.205347 4.593852 5.714864 -77.571285 0.000002 0.000001 -0.000001 -0.898115 25.999827 -39.725278 3.064777 5.147073 -61.520668 -0.000001 0.000001 0.000001 0.132934 11.019570 0.091519 0.000000 0.000000 0.000000 -52.602900 29.258966 58.205643 0.000014 65.435535 -0.000019 -3.166162 23.405665 -3.739134 69.117703 51.996926 -9.452143 -16.703788 -68.742466 -26.828705 98.304468 -52.567267 75.292713 -0.000002 0.000000 -0.000001 4.888490 -3.587980 60.052560 3.060846 -4.375606 69.934184 0.000000 0.000000 0.000000 0.961141 -5.384091 56.376313 4.679871 -4.657112 90.279671 -0.000002 -0.000000 -0.000001 3.728755 -7.057930 60.914598 4.187438 -4.633465 84.204949 -0.000000 0.000000 0.000000 0.980478 -22.208053 52.984871 2.708900 -4.230872 65.246188 -0.000000 -0.000002 0.000000 -100.670042 -11.379014 3.567225 135.795144 19.291647 1.663849 63.762767 5.578046 -5.021568 13.496871 11.185721 42.710071 -0.000001 -0.000000 0.000001 -99.046725 21.090586 -6.444744 136.258640 -4.443572 0.220804 57.636510 5.903429 5.023077 1.451593 -34.654788 -51.948971 -0.000002 0.000002 0.000001 
